<?xml version="1.0" encoding="utf-8"?>
<!-- Generator: Adobe Illustrator 16.0.0, SVG Export Plug-In . SVG Version: 6.00 Build 0)  -->
<!DOCTYPE svg PUBLIC "-//W3C//DTD SVG 1.1//EN" "http://www.w3.org/Graphics/SVG/1.1/DTD/svg11.dtd">
<svg version="1.1" id="Layer_1" xmlns="http://www.w3.org/2000/svg" xmlns:xlink="http://www.w3.org/1999/xlink" x="0px" y="0px"
	 width="841.889px" height="595.281px" viewBox="0 0 841.889 595.281" enable-background="new 0 0 841.889 595.281"
	 xml:space="preserve">
<g id="Layer_1_1_">
	<g>
		<g>
			<polygon fill="#F58020" points="430.603,292.142 392.565,205.665 211.289,205.665 249.327,292.142 			"/>
		</g>
		<g>
			<polygon fill="#2B2C2B" points="810.092,233.302 213.369,233.302 213.369,359.007 755.115,359.007 			"/>
		</g>
		<g>
			<polygon fill="#FEBB12" points="312.923,386.643 12.779,386.643 92.42,205.665 392.565,205.665 			"/>
		</g>
		<g>
			<g>
				<polygon fill="#FEBB12" points="426.74,316.51 411.583,308.784 396.428,316.51 398.805,299.572 386.918,287.387 
					403.858,284.714 411.881,269.557 419.608,284.714 436.249,287.685 424.363,299.572 				"/>
			</g>
			<g>
				<polygon fill="#FEBB12" points="501.627,316.51 486.471,308.784 471.018,316.51 473.693,299.572 461.806,287.387 
					478.744,284.714 486.471,269.557 494.198,284.714 511.137,287.685 499.249,299.572 				"/>
			</g>
			<g>
				<polygon fill="#FEBB12" points="576.217,316.51 561.062,308.784 545.906,316.51 548.58,299.572 536.694,287.387 
					553.335,284.714 561.359,269.557 569.085,284.714 586.024,287.685 573.84,299.572 				"/>
			</g>
			<g>
				<polygon fill="#FEBB12" points="651.105,316.51 635.948,308.784 620.793,316.51 623.17,299.572 611.58,287.387 628.223,284.714 
					636.246,269.557 643.973,284.714 660.615,287.685 648.728,299.572 				"/>
			</g>
			<g>
				<polygon fill="#FEBB12" points="725.992,316.51 710.836,308.784 695.383,316.51 698.058,299.572 686.171,287.387 
					703.11,284.714 710.836,269.557 718.86,284.714 735.502,287.685 723.615,299.572 				"/>
			</g>
		</g>
	</g>
	<g>
		<g>
			<polyline fill="#FFFFFF" points="706.379,304.624 695.681,316.51 698.058,299.572 			"/>
		</g>
	</g>
	<g enable-background="new    ">
		<path d="M144.246,318.118v-8.855h-17.355v-7.073l19.911-25.556h5.409v25.498h5.23v7.132h-5.23v8.855H144.246z M134.855,302.131
			h10.282v-13.433L134.855,302.131z"/>
		<path d="M163.087,310.57v-8.559h6.538v8.559H163.087z"/>
		<path d="M206.295,298.089c0,1.981-0.407,3.765-1.218,5.349c-0.812,1.586-1.922,2.953-3.328,4.102
			c-1.407,1.149-3.042,2.031-4.904,2.645c-1.863,0.614-3.844,0.922-5.943,0.922c-2.101,0-4.082-0.327-5.943-0.98
			c-1.863-0.654-3.487-1.575-4.874-2.764c-1.388-1.189-2.477-2.596-3.269-4.221c-0.793-1.624-1.188-3.406-1.188-5.349
			c0-1.189,0.198-2.288,0.594-3.299c0.396-1.01,0.911-1.932,1.545-2.764c0.633-0.832,1.337-1.565,2.11-2.199
			c0.772-0.633,1.555-1.148,2.348-1.545c-1.466-0.713-2.714-1.783-3.745-3.209c-1.031-1.427-1.545-2.991-1.545-4.695
			c0-1.902,0.425-3.576,1.278-5.022c0.852-1.446,1.961-2.664,3.328-3.655c1.367-0.99,2.873-1.743,4.517-2.258
			c1.644-0.515,3.278-0.773,4.903-0.773c1.584,0,3.219,0.248,4.903,0.743c1.684,0.496,3.199,1.239,4.547,2.229
			c1.347,0.991,2.456,2.209,3.328,3.655c0.871,1.447,1.308,3.121,1.308,5.022c0,0.832-0.139,1.655-0.416,2.466
			c-0.278,0.813-0.664,1.566-1.159,2.259c-0.496,0.694-1.08,1.318-1.753,1.872c-0.674,0.555-1.388,1.01-2.14,1.367
			c0.871,0.437,1.703,0.98,2.496,1.634c0.792,0.654,1.505,1.407,2.14,2.258c0.633,0.853,1.139,1.793,1.516,2.823
			C206.106,295.732,206.295,296.861,206.295,298.089z M198.212,297.614c0-0.99-0.208-1.882-0.624-2.675
			c-0.416-0.792-0.971-1.456-1.664-1.991c-0.694-0.535-1.477-0.94-2.348-1.218c-0.872-0.277-1.764-0.416-2.675-0.416
			c-0.951,0-1.863,0.148-2.734,0.446c-0.872,0.297-1.634,0.724-2.288,1.278c-0.654,0.555-1.18,1.218-1.575,1.991
			c-0.396,0.772-0.594,1.634-0.594,2.585c0,0.951,0.208,1.812,0.624,2.585c0.416,0.772,0.96,1.437,1.634,1.99
			c0.673,0.557,1.446,0.981,2.318,1.278c0.871,0.298,1.762,0.446,2.674,0.446c0.951,0,1.862-0.158,2.734-0.477
			c0.871-0.316,1.644-0.752,2.318-1.307c0.673-0.555,1.208-1.219,1.605-1.991C198.013,299.367,198.212,298.525,198.212,297.614z
			 M185.017,280.318c0,0.832,0.178,1.555,0.535,2.169c0.357,0.615,0.822,1.129,1.397,1.545c0.574,0.416,1.208,0.734,1.902,0.951
			c0.693,0.218,1.396,0.327,2.11,0.327c0.673,0,1.367-0.108,2.08-0.327c0.713-0.217,1.357-0.544,1.932-0.981
			c0.574-0.436,1.04-0.96,1.397-1.575c0.356-0.614,0.535-1.337,0.535-2.169c0-1.465-0.585-2.635-1.753-3.507
			c-1.169-0.871-2.585-1.308-4.25-1.308c-1.625,0-3.012,0.446-4.16,1.337C185.591,277.673,185.017,278.852,185.017,280.318z"/>
		<path d="M248.79,268.371L219.31,310.57h-8.796l29.42-42.199H248.79z"/>
		<path d="M265.61,291.611c1.981,0,3.823,0.327,5.527,0.98c1.704,0.654,3.17,1.575,4.398,2.764c1.228,1.189,2.189,2.615,2.882,4.28
			c0.693,1.664,1.041,3.506,1.041,5.527c0,2.139-0.387,4.081-1.159,5.824s-1.853,3.239-3.239,4.487
			c-1.387,1.248-3.031,2.219-4.933,2.912s-3.962,1.04-6.181,1.04c-3.09,0-5.854-0.653-8.291-1.961s-4.29-3.091-5.557-5.35
			l4.577-4.754c1.108,1.545,2.496,2.773,4.16,3.685s3.388,1.367,5.171,1.367c2.14,0,3.893-0.645,5.26-1.932
			c1.367-1.287,2.051-3.002,2.051-5.142c0-2.06-0.645-3.724-1.932-4.992c-1.288-1.268-2.923-1.902-4.903-1.902
			c-1.308,0-2.526,0.297-3.655,0.893c-1.129,0.594-2.031,1.406-2.705,2.436h-6.954c0-0.118,0.079-0.564,0.238-1.337
			c0.158-0.772,0.356-1.763,0.594-2.972c0.238-1.208,0.495-2.556,0.772-4.042c0.277-1.486,0.574-3.001,0.892-4.546
			c0.713-3.645,1.505-7.727,2.377-12.244h20.802v7.251h-15.037l-1.724,9.45c0.476-0.515,1.179-0.931,2.11-1.249
			C263.123,291.769,264.262,291.611,265.61,291.611z"/>
	</g>
</g>
<g id="Layer_2">
</g>
</svg>
