<?xml version="1.0" encoding="utf-8"?>
<!-- Generator: Adobe Illustrator 16.0.0, SVG Export Plug-In . SVG Version: 6.00 Build 0)  -->
<!DOCTYPE svg PUBLIC "-//W3C//DTD SVG 1.1//EN" "http://www.w3.org/Graphics/SVG/1.1/DTD/svg11.dtd">
<svg version="1.1" id="Layer_1" xmlns="http://www.w3.org/2000/svg" xmlns:xlink="http://www.w3.org/1999/xlink" x="0px" y="0px"
	 width="841.889px" height="595.281px" viewBox="0 0 841.889 595.281" enable-background="new 0 0 841.889 595.281"
	 xml:space="preserve">
<g id="Layer_1_1_">
	<g>
		<g>
			<polygon fill="#F58020" points="430.603,292.142 392.565,205.665 211.289,205.665 249.327,292.142 			"/>
		</g>
		<g>
			<polygon fill="#2B2C2B" points="810.092,233.302 213.369,233.302 213.369,359.007 755.115,359.007 			"/>
		</g>
		<g>
			<polygon fill="#FEBB12" points="312.923,386.643 12.779,386.643 92.42,205.665 392.565,205.665 			"/>
		</g>
		<g>
			<g>
				<polygon fill="#FEBB12" points="426.74,316.51 411.583,308.784 396.428,316.51 398.805,299.572 386.918,287.387 
					403.858,284.714 411.881,269.557 419.608,284.714 436.249,287.685 424.363,299.572 				"/>
			</g>
			<g>
				<polygon fill="#FEBB12" points="501.627,316.51 486.471,308.784 471.018,316.51 473.693,299.572 461.806,287.387 
					478.744,284.714 486.471,269.557 494.198,284.714 511.137,287.685 499.249,299.572 				"/>
			</g>
			<g>
				<polygon fill="#FEBB12" points="576.217,316.51 561.062,308.784 545.906,316.51 548.58,299.572 536.694,287.387 
					553.335,284.714 561.359,269.557 569.085,284.714 586.024,287.685 573.84,299.572 				"/>
			</g>
			<g>
				<polygon fill="#FEBB12" points="651.105,316.51 635.948,308.784 620.793,316.51 623.17,299.572 611.58,287.387 628.223,284.714 
					636.246,269.557 643.973,284.714 660.615,287.685 648.728,299.572 				"/>
			</g>
			<g>
				<polygon fill="#FEBB12" points="725.992,316.51 710.836,308.784 695.383,316.51 698.058,299.572 686.171,287.387 
					703.11,284.714 710.836,269.557 718.86,284.714 735.502,287.685 723.615,299.572 				"/>
			</g>
		</g>
	</g>
	<g>
		<g>
			<polyline fill="#FFFFFF" points="701.03,303.732 695.681,316.51 698.058,299.572 			"/>
		</g>
	</g>
	<g enable-background="new    ">
		<path d="M141.275,318.114v-8.855H123.92v-7.073l19.911-25.556h5.409v25.498h5.23v7.132h-5.23v8.855H141.275z M131.885,302.127
			h10.282v-13.433L131.885,302.127z"/>
		<path d="M160.116,310.566v-8.559h6.538v8.559H160.116z"/>
		<path d="M171.943,291.309c0-2.06,0.396-3.982,1.189-5.765c0.792-1.783,1.872-3.337,3.239-4.666
			c1.367-1.327,2.991-2.367,4.874-3.12c1.881-0.752,3.912-1.129,6.092-1.129c2.377,0,4.526,0.437,6.449,1.308
			c1.921,0.872,3.556,2.14,4.903,3.804c1.347,1.664,2.387,3.695,3.12,6.092c0.733,2.398,1.1,5.122,1.1,8.172
			c0,3.844-0.386,7.241-1.159,10.192c-0.773,2.953-1.863,5.429-3.269,7.43c-1.407,2.001-3.12,3.517-5.141,4.547
			s-4.279,1.546-6.775,1.546c-2.655,0-5.111-0.575-7.37-1.724c-2.258-1.15-4.16-2.794-5.706-4.934l4.576-4.992
			c0.951,1.506,2.179,2.675,3.685,3.507c1.505,0.832,3.15,1.248,4.933,1.248c2.654,0,4.764-1.051,6.33-3.15
			c1.564-2.1,2.386-5.071,2.466-8.915c-0.793,1.426-1.961,2.556-3.507,3.388c-1.545,0.832-3.328,1.248-5.349,1.248
			c-2.101,0-4.042-0.356-5.824-1.069c-1.783-0.713-3.329-1.703-4.636-2.973c-1.308-1.268-2.338-2.764-3.09-4.487
			C172.319,295.143,171.943,293.291,171.943,291.309z M187.336,283.345c-1.07,0-2.071,0.208-3.001,0.624
			c-0.932,0.417-1.753,0.991-2.466,1.724c-0.713,0.734-1.278,1.585-1.694,2.556c-0.416,0.972-0.625,1.991-0.625,3.061
			s0.208,2.071,0.625,3.001c0.416,0.932,0.97,1.753,1.664,2.467c0.693,0.713,1.516,1.269,2.466,1.664
			c0.951,0.396,1.961,0.595,3.031,0.595s2.08-0.198,3.031-0.595c0.951-0.395,1.773-0.951,2.466-1.664
			c0.693-0.713,1.248-1.535,1.665-2.467c0.416-0.931,0.624-1.932,0.624-3.001s-0.208-2.089-0.624-3.061
			c-0.417-0.97-0.981-1.812-1.694-2.526c-0.713-0.713-1.536-1.287-2.466-1.724C189.406,283.563,188.406,283.345,187.336,283.345z"/>
		<path d="M244.927,268.367l-29.479,42.199h-8.796l29.42-42.199H244.927z"/>
		<path d="M261.748,291.607c1.981,0,3.823,0.327,5.527,0.98c1.704,0.654,3.17,1.575,4.398,2.764c1.228,1.189,2.189,2.615,2.882,4.28
			c0.693,1.664,1.041,3.506,1.041,5.527c0,2.139-0.387,4.081-1.159,5.824s-1.853,3.239-3.239,4.487
			c-1.387,1.248-3.031,2.219-4.933,2.912s-3.962,1.04-6.181,1.04c-3.09,0-5.854-0.653-8.291-1.961s-4.29-3.091-5.557-5.35
			l4.577-4.754c1.108,1.545,2.496,2.773,4.16,3.685s3.388,1.367,5.171,1.367c2.14,0,3.893-0.645,5.26-1.932
			c1.367-1.287,2.051-3.002,2.051-5.142c0-2.06-0.645-3.724-1.932-4.992c-1.288-1.268-2.923-1.902-4.903-1.902
			c-1.308,0-2.526,0.297-3.655,0.893c-1.129,0.594-2.031,1.406-2.705,2.436h-6.954c0-0.118,0.079-0.564,0.238-1.337
			c0.158-0.772,0.356-1.763,0.594-2.972c0.238-1.208,0.495-2.556,0.772-4.042c0.277-1.486,0.574-3.001,0.892-4.546
			c0.713-3.645,1.505-7.727,2.377-12.244h20.802v7.251h-15.037l-1.724,9.45c0.476-0.515,1.179-0.931,2.11-1.249
			C259.261,291.765,260.401,291.607,261.748,291.607z"/>
	</g>
</g>
<g id="Layer_2">
</g>
</svg>
