<?xml version="1.0" encoding="utf-8"?>
<!-- Generator: Adobe Illustrator 22.1.0, SVG Export Plug-In . SVG Version: 6.00 Build 0)  -->
<svg version="1.1" id="Layer_1" xmlns="http://www.w3.org/2000/svg" xmlns:xlink="http://www.w3.org/1999/xlink" x="0px" y="0px"
	 viewBox="0 0 279.3 69.3" style="enable-background:new 0 0 279.3 69.3;" xml:space="preserve">
<style type="text/css">
	.st0{fill-rule:evenodd;clip-rule:evenodd;fill:#F58020;}
	.st1{fill-rule:evenodd;clip-rule:evenodd;fill:#2B2C2B;}
	.st2{fill-rule:evenodd;clip-rule:evenodd;fill:#FEBB12;}
	.st3{fill:#FEBB12;}
	.st4{fill:#010101;}
	.st5{fill:#838383;}
</style>
<g>
	<g>
		<polygon class="st0" points="144.4,33.5 131.6,4.4 70.6,4.4 83.4,33.5 		"/>
	</g>
	<g>
		<polygon class="st1" points="272.1,13.7 71.3,13.7 71.3,56 253.6,56 		"/>
	</g>
	<g>
		<polygon class="st2" points="104.8,65.3 3.9,65.3 30.6,4.4 131.6,4.4 		"/>
	</g>
	<g>
		<g>
			<polygon class="st3" points="143.1,41.7 138,39.1 132.9,41.6 133.8,36 129.8,31.9 135.4,31 138.1,25.9 140.7,31 146.4,32 
				142.3,36 			"/>
		</g>
		<g>
			<polygon class="st3" points="168.3,41.7 163.2,39.1 158.1,41.6 158.9,36 154.9,31.9 160.6,31 163.3,25.9 165.9,31 171.5,32 
				167.5,36 			"/>
		</g>
		<g>
			<polygon class="st3" points="193.5,41.7 188.4,39.1 183.2,41.6 184.1,36 180.1,31.9 185.8,31 188.4,25.9 191,31 196.7,32 
				192.7,36 			"/>
		</g>
		<g>
			<polygon class="st3" points="218.6,41.7 213.5,39.1 208.4,41.6 209.3,36 205.3,31.9 210.9,31 213.6,25.9 216.2,31 221.9,32 
				217.8,36 			"/>
		</g>
		<g>
			<polygon class="st3" points="243.8,41.7 238.7,39.1 233.6,41.6 234.4,36 230.5,31.9 236.1,31 238.8,25.9 241.4,31 247,32 243,36 
							"/>
		</g>
	</g>
</g>
<g>
	<path class="st4" d="M53.8,33.4c0.8,0,1.5,0.1,2.2,0.4s1.2,0.6,1.7,1.1c0.5,0.5,0.9,1,1.1,1.7c0.3,0.6,0.4,1.4,0.4,2.2
		c0,0.8-0.2,1.6-0.5,2.3c-0.3,0.7-0.7,1.3-1.3,1.7s-1.2,0.9-1.9,1.1c-0.7,0.3-1.5,0.4-2.4,0.4c-1.2,0-2.3-0.3-3.2-0.8
		c-0.9-0.5-1.7-1.2-2.2-2.1l1.8-1.9c0.4,0.6,1,1.1,1.6,1.4c0.6,0.4,1.3,0.5,2,0.5c0.8,0,1.5-0.3,2-0.8s0.8-1.2,0.8-2
		c0-0.8-0.3-1.4-0.8-1.9s-1.1-0.7-1.9-0.7c-0.5,0-1,0.1-1.4,0.3c-0.4,0.2-0.8,0.5-1.1,0.9h-2.7c0,0,0-0.2,0.1-0.5s0.1-0.7,0.2-1.2
		s0.2-1,0.3-1.6c0.1-0.6,0.2-1.2,0.3-1.8c0.3-1.4,0.6-3,0.9-4.8h8.1v2.8h-5.9l-0.7,3.7c0.2-0.2,0.5-0.4,0.8-0.5
		C52.9,33.5,53.3,33.4,53.8,33.4z"/>
	<path class="st4" d="M75.5,24.4L64,40.8h-3.4L72,24.4H75.5z"/>
	<path class="st4" d="M82,33.4c0.8,0,1.5,0.1,2.2,0.4s1.2,0.6,1.7,1.1c0.5,0.5,0.9,1,1.1,1.7c0.3,0.6,0.4,1.4,0.4,2.2
		c0,0.8-0.2,1.6-0.5,2.3c-0.3,0.7-0.7,1.3-1.3,1.7s-1.2,0.9-1.9,1.1c-0.7,0.3-1.5,0.4-2.4,0.4c-1.2,0-2.3-0.3-3.2-0.8
		c-0.9-0.5-1.7-1.2-2.2-2.1l1.8-1.9c0.4,0.6,1,1.1,1.6,1.4c0.6,0.4,1.3,0.5,2,0.5c0.8,0,1.5-0.3,2-0.8s0.8-1.2,0.8-2
		c0-0.8-0.3-1.4-0.8-1.9s-1.1-0.7-1.9-0.7c-0.5,0-1,0.1-1.4,0.3c-0.4,0.2-0.8,0.5-1.1,0.9h-2.7c0,0,0-0.2,0.1-0.5s0.1-0.7,0.2-1.2
		s0.2-1,0.3-1.6c0.1-0.6,0.2-1.2,0.3-1.8c0.3-1.4,0.6-3,0.9-4.8h8.1v2.8h-5.9l-0.7,3.7c0.2-0.2,0.5-0.4,0.8-0.5
		C81.1,33.5,81.5,33.4,82,33.4z"/>
</g>
</svg>
