<?xml version="1.0" encoding="utf-8"?>
<!-- Generator: Adobe Illustrator 22.1.0, SVG Export Plug-In . SVG Version: 6.00 Build 0)  -->
<svg version="1.1" id="Layer_1" xmlns="http://www.w3.org/2000/svg" xmlns:xlink="http://www.w3.org/1999/xlink" x="0px" y="0px"
	 viewBox="0 0 409 69.3" style="enable-background:new 0 0 409 69.3;" xml:space="preserve">
<style type="text/css">
	.st0{fill-rule:evenodd;clip-rule:evenodd;fill:#F58020;}
	.st1{fill-rule:evenodd;clip-rule:evenodd;fill:#2B2C2B;}
	.st2{fill-rule:evenodd;clip-rule:evenodd;fill:#FEBB12;}
	.st3{fill:#FEBB12;}
	.st4{fill:#010101;}
	.st5{fill:#838383;}
</style>
<g>
	<polyline class="st5" points="371.3,31.5 376.9,32.5 372.9,36.6 373.7,42.2 368.6,39.7 363.4,42.2 364.3,36.5 	"/>
</g>
<g>
	<polygon class="st0" points="147.5,34.3 134.7,5.2 73.7,5.2 86.6,34.3 	"/>
</g>
<g>
	<polygon class="st1" points="402.5,14.5 74.4,14.5 74.4,56.8 384,56.8 	"/>
</g>
<g>
	<polygon class="st2" points="108,66.1 7,66.1 33.7,5.2 134.7,5.2 	"/>
</g>
<g>
	<g>
		<polygon class="st3" points="146.3,42.5 141.1,39.9 136,42.4 136.9,36.8 132.9,32.7 138.5,31.8 141.2,26.7 143.8,31.8 149.5,32.8 
			145.4,36.8 		"/>
	</g>
	<g>
		<polygon class="st3" points="171.4,42.5 166.3,39.9 161.2,42.4 162.1,36.8 158.1,32.7 163.7,31.8 166.4,26.7 169,31.8 174.6,32.8 
			170.6,36.8 		"/>
	</g>
	<g>
		<polygon class="st3" points="196.6,42.5 191.5,39.9 186.4,42.4 187.2,36.8 183.2,32.7 188.9,31.8 191.5,26.7 194.2,31.8 
			199.8,32.8 195.8,36.8 		"/>
	</g>
	<g>
		<polygon class="st3" points="221.8,42.5 216.7,39.9 211.5,42.4 212.4,36.8 208.4,32.7 214,31.8 216.7,26.7 219.3,31.8 225,32.8 
			220.9,36.8 		"/>
	</g>
	<g>
		<polygon class="st3" points="246.9,42.5 241.8,39.9 236.7,42.4 237.6,36.8 233.6,32.7 239.2,31.8 241.9,26.7 244.5,31.8 
			250.1,32.8 246.1,36.8 		"/>
	</g>
</g>
<g>
	<g>
		<polygon class="st3" points="273,42.2 267.9,39.7 262.8,42.2 263.6,36.5 259.6,32.4 265.3,31.5 268,26.5 270.6,31.5 276.2,32.5 
			272.2,36.6 		"/>
	</g>
	<g>
		<polygon class="st3" points="298.2,42.2 293.1,39.7 287.9,42.2 288.8,36.5 284.8,32.4 290.5,31.5 293.1,26.5 295.7,31.5 
			301.4,32.5 297.4,36.6 		"/>
	</g>
	<g>
		<polygon class="st3" points="323.3,42.2 318.2,39.7 313.1,42.2 314,36.5 310,32.4 315.6,31.5 318.3,26.5 320.9,31.5 326.6,32.5 
			322.5,36.6 		"/>
	</g>
	<g>
		<polygon class="st3" points="348.5,42.2 343.4,39.7 338.3,42.2 339.1,36.5 335.2,32.4 340.8,31.5 343.5,26.5 346.1,31.5 
			351.7,32.5 347.7,36.6 		"/>
	</g>
	<g>
		<polygon class="st3" points="373.7,42.2 368.6,39.7 363.4,42.2 364.3,36.5 360.3,32.4 366,31.5 368.6,26.5 371.3,31.5 376.9,32.5 
			372.9,36.6 		"/>
	</g>
	<g>
		<polyline class="st5" points="371.3,31.5 376.9,32.5 372.9,36.6 373.7,42.2 368.6,39.7 		"/>
	</g>
</g>
<g>
	<path class="st4" d="M33.1,33.9c0-0.8,0.1-1.5,0.4-2.1c0.3-0.7,0.7-1.2,1.2-1.7c0.5-0.5,1.1-0.9,1.8-1.2c0.7-0.3,1.5-0.4,2.3-0.4
		c0.9,0,1.7,0.2,2.4,0.5c0.7,0.3,1.3,0.8,1.8,1.4c0.5,0.6,0.9,1.4,1.2,2.3c0.3,0.9,0.4,1.9,0.4,3c0,1.4-0.1,2.7-0.4,3.8
		c-0.3,1.1-0.7,2-1.2,2.8c-0.5,0.7-1.2,1.3-1.9,1.7c-0.8,0.4-1.6,0.6-2.5,0.6c-1,0-1.9-0.2-2.7-0.6c-0.8-0.4-1.5-1-2.1-1.8l1.7-1.9
		c0.4,0.6,0.8,1,1.4,1.3c0.6,0.3,1.2,0.5,1.8,0.5c1,0,1.8-0.4,2.4-1.2c0.6-0.8,0.9-1.9,0.9-3.3c-0.3,0.5-0.7,0.9-1.3,1.3
		c-0.6,0.3-1.2,0.5-2,0.5c-0.8,0-1.5-0.1-2.2-0.4s-1.2-0.6-1.7-1.1c-0.5-0.5-0.9-1-1.1-1.7C33.3,35.3,33.1,34.6,33.1,33.9z
		 M38.9,30.9c-0.4,0-0.8,0.1-1.1,0.2c-0.3,0.2-0.7,0.4-0.9,0.6c-0.3,0.3-0.5,0.6-0.6,0.9C36,33.1,36,33.5,36,33.9
		c0,0.4,0.1,0.8,0.2,1.1c0.2,0.3,0.4,0.7,0.6,0.9c0.3,0.3,0.6,0.5,0.9,0.6c0.4,0.1,0.7,0.2,1.1,0.2c0.4,0,0.8-0.1,1.1-0.2
		c0.4-0.1,0.7-0.4,0.9-0.6s0.5-0.6,0.6-0.9c0.2-0.3,0.2-0.7,0.2-1.1c0-0.4-0.1-0.8-0.2-1.1c-0.2-0.4-0.4-0.7-0.6-0.9
		c-0.3-0.3-0.6-0.5-0.9-0.6C39.6,31,39.2,30.9,38.9,30.9z"/>
	<path class="st4" d="M46.7,41v-3.2h2.4V41H46.7z"/>
	<path class="st4" d="M56.8,34c0.7,0,1.4,0.1,2.1,0.4c0.6,0.2,1.2,0.6,1.6,1c0.5,0.4,0.8,1,1.1,1.6c0.3,0.6,0.4,1.3,0.4,2.1
		c0,0.8-0.1,1.5-0.4,2.2c-0.3,0.6-0.7,1.2-1.2,1.7c-0.5,0.5-1.1,0.8-1.8,1.1c-0.7,0.3-1.5,0.4-2.3,0.4c-1.1,0-2.2-0.2-3.1-0.7
		c-0.9-0.5-1.6-1.1-2.1-2l1.7-1.8c0.4,0.6,0.9,1,1.5,1.4c0.6,0.3,1.3,0.5,1.9,0.5c0.8,0,1.4-0.2,2-0.7c0.5-0.5,0.8-1.1,0.8-1.9
		c0-0.8-0.2-1.4-0.7-1.9c-0.5-0.5-1.1-0.7-1.8-0.7c-0.5,0-0.9,0.1-1.4,0.3s-0.8,0.5-1,0.9h-2.6c0,0,0-0.2,0.1-0.5
		c0.1-0.3,0.1-0.7,0.2-1.1s0.2-1,0.3-1.5c0.1-0.6,0.2-1.1,0.3-1.7c0.3-1.4,0.6-2.9,0.9-4.6H61v2.7h-5.6l-0.6,3.5
		c0.2-0.2,0.4-0.3,0.8-0.5C55.9,34,56.3,34,56.8,34z"/>
	<path class="st4" d="M70.2,30.8H63v-2.7h11.8l-7.8,15.7h-3.4L70.2,30.8z"/>
	<path class="st4" d="M88.3,25.3L77.3,41h-3.3L85,25.3H88.3z"/>
	<path class="st4" d="M98.9,38.3V41h-9v-2.7h3.1v-6.7c-0.1,0.2-0.3,0.4-0.6,0.5c-0.3,0.2-0.6,0.4-0.9,0.5c-0.3,0.2-0.7,0.3-1,0.4
		c-0.4,0.1-0.7,0.2-1,0.2v-2.8c0.3,0,0.6-0.1,1-0.3c0.4-0.2,0.8-0.4,1.1-0.6c0.4-0.2,0.7-0.5,1-0.7s0.4-0.4,0.5-0.5h3v9.9H98.9z"/>
	<path class="st4" d="M111.9,34.5c0,1-0.1,1.9-0.4,2.7c-0.3,0.8-0.7,1.5-1.2,2.1s-1.1,1.1-1.8,1.4c-0.7,0.3-1.5,0.5-2.3,0.5
		c-0.8,0-1.6-0.2-2.3-0.5c-0.7-0.3-1.3-0.8-1.8-1.4c-0.5-0.6-0.9-1.3-1.2-2.1c-0.3-0.8-0.4-1.7-0.4-2.7c0-1,0.1-1.9,0.4-2.7
		c0.3-0.8,0.7-1.5,1.2-2.1c0.5-0.6,1.1-1.1,1.8-1.4c0.7-0.3,1.5-0.5,2.3-0.5c0.8,0,1.6,0.2,2.3,0.5c0.7,0.3,1.3,0.8,1.8,1.4
		s0.9,1.3,1.2,2.1C111.8,32.7,111.9,33.6,111.9,34.5z M109,34.5c0-0.6-0.1-1.1-0.2-1.6c-0.1-0.5-0.3-0.9-0.6-1.3
		c-0.2-0.4-0.5-0.6-0.9-0.8c-0.3-0.2-0.7-0.3-1.1-0.3c-0.4,0-0.8,0.1-1.1,0.3c-0.3,0.2-0.6,0.5-0.9,0.8c-0.2,0.4-0.4,0.8-0.6,1.3
		c-0.1,0.5-0.2,1-0.2,1.6c0,0.6,0.1,1.1,0.2,1.6c0.1,0.5,0.3,0.9,0.6,1.3c0.2,0.4,0.5,0.6,0.9,0.8c0.3,0.2,0.7,0.3,1.1,0.3
		c0.4,0,0.8-0.1,1.1-0.3c0.3-0.2,0.6-0.5,0.9-0.8c0.2-0.4,0.4-0.8,0.6-1.3C108.9,35.7,109,35.1,109,34.5z"/>
</g>
</svg>
