<?xml version="1.0" encoding="utf-8"?>
<!-- Generator: Adobe Illustrator 22.1.0, SVG Export Plug-In . SVG Version: 6.00 Build 0)  -->
<svg version="1.1" id="Layer_1" xmlns="http://www.w3.org/2000/svg" xmlns:xlink="http://www.w3.org/1999/xlink" x="0px" y="0px"
	 viewBox="0 0 282 69.3" style="enable-background:new 0 0 282 69.3;" xml:space="preserve">
<style type="text/css">
	.st0{fill-rule:evenodd;clip-rule:evenodd;fill:#F58020;}
	.st1{fill-rule:evenodd;clip-rule:evenodd;fill:#2B2C2B;}
	.st2{fill-rule:evenodd;clip-rule:evenodd;fill:#FEBB12;}
	.st3{fill:#FEBB12;}
	.st4{fill:#010101;}
	.st5{fill:#838383;}
</style>
<g>
	<g>
		<polygon class="st0" points="144.9,33.5 132.1,4.4 71.1,4.4 83.9,33.5 		"/>
	</g>
	<g>
		<polygon class="st1" points="272.6,13.7 71.8,13.7 71.8,56 254.1,56 		"/>
	</g>
	<g>
		<polygon class="st2" points="105.3,65.3 4.4,65.3 31.1,4.4 132.1,4.4 		"/>
	</g>
	<g>
		<g>
			<polygon class="st3" points="143.6,41.7 138.5,39.1 133.4,41.6 134.3,36 130.3,31.9 135.9,31 138.6,25.9 141.2,31 146.8,32 
				142.8,36 			"/>
		</g>
		<g>
			<polygon class="st3" points="168.8,41.7 163.7,39.1 158.6,41.6 159.4,36 155.4,31.9 161.1,31 163.8,25.9 166.4,31 172,32 168,36 
							"/>
		</g>
		<g>
			<polygon class="st3" points="194,41.7 188.9,39.1 183.7,41.6 184.6,36 180.6,31.9 186.3,31 188.9,25.9 191.5,31 197.2,32 
				193.2,36 			"/>
		</g>
		<g>
			<polygon class="st3" points="219.1,41.7 214,39.1 208.9,41.6 209.8,36 205.8,31.9 211.4,31 214.1,25.9 216.7,31 222.3,32 
				218.3,36 			"/>
		</g>
		<g>
			<polygon class="st3" points="244.3,41.7 239.2,39.1 234.1,41.6 234.9,36 230.9,31.9 236.6,31 239.3,25.9 241.9,31 247.5,32 
				243.5,36 			"/>
		</g>
	</g>
</g>
<g>
	<path class="st4" d="M55.3,33.4c0.8,0,1.5,0.1,2.2,0.4s1.2,0.6,1.7,1.1c0.5,0.5,0.9,1,1.1,1.7c0.3,0.6,0.4,1.4,0.4,2.2
		c0,0.8-0.2,1.6-0.5,2.3c-0.3,0.7-0.7,1.3-1.3,1.7s-1.2,0.9-1.9,1.1c-0.7,0.3-1.5,0.4-2.4,0.4c-1.2,0-2.3-0.3-3.2-0.8
		c-0.9-0.5-1.7-1.2-2.2-2.1l1.8-1.9c0.4,0.6,1,1.1,1.6,1.4c0.6,0.4,1.3,0.5,2,0.5c0.8,0,1.5-0.3,2-0.8s0.8-1.2,0.8-2
		c0-0.8-0.3-1.4-0.8-1.9s-1.1-0.7-1.9-0.7c-0.5,0-1,0.1-1.4,0.3c-0.4,0.2-0.8,0.5-1.1,0.9h-2.7c0,0,0-0.2,0.1-0.5s0.1-0.7,0.2-1.2
		s0.2-1,0.3-1.6c0.1-0.6,0.2-1.2,0.3-1.8c0.3-1.4,0.6-3,0.9-4.8h8.1v2.8h-5.9l-0.7,3.7c0.2-0.2,0.5-0.4,0.8-0.5
		C54.4,33.5,54.8,33.4,55.3,33.4z"/>
	<path class="st4" d="M77,24.4L65.5,40.8h-3.4l11.5-16.4H77z"/>
	<path class="st4" d="M83.5,33.4c0.8,0,1.5,0.1,2.2,0.4s1.2,0.6,1.7,1.1c0.5,0.5,0.9,1,1.1,1.7c0.3,0.6,0.4,1.4,0.4,2.2
		c0,0.8-0.2,1.6-0.5,2.3c-0.3,0.7-0.7,1.3-1.3,1.7s-1.2,0.9-1.9,1.1c-0.7,0.3-1.5,0.4-2.4,0.4c-1.2,0-2.3-0.3-3.2-0.8
		c-0.9-0.5-1.7-1.2-2.2-2.1l1.8-1.9c0.4,0.6,1,1.1,1.6,1.4c0.6,0.4,1.3,0.5,2,0.5c0.8,0,1.5-0.3,2-0.8s0.8-1.2,0.8-2
		c0-0.8-0.3-1.4-0.8-1.9s-1.1-0.7-1.9-0.7c-0.5,0-1,0.1-1.4,0.3c-0.4,0.2-0.8,0.5-1.1,0.9h-2.7c0,0,0-0.2,0.1-0.5s0.1-0.7,0.2-1.2
		s0.2-1,0.3-1.6c0.1-0.6,0.2-1.2,0.3-1.8c0.3-1.4,0.6-3,0.9-4.8h8.1v2.8H82l-0.7,3.7c0.2-0.2,0.5-0.4,0.8-0.5
		C82.6,33.5,83,33.4,83.5,33.4z"/>
</g>
</svg>
