<?xml version="1.0" encoding="utf-8"?>
<!-- Generator: Adobe Illustrator 22.1.0, SVG Export Plug-In . SVG Version: 6.00 Build 0)  -->
<svg version="1.1" id="Layer_1" xmlns="http://www.w3.org/2000/svg" xmlns:xlink="http://www.w3.org/1999/xlink" x="0px" y="0px"
	 viewBox="0 0 282 69.3" style="enable-background:new 0 0 282 69.3;" xml:space="preserve">
<style type="text/css">
	.st0{fill-rule:evenodd;clip-rule:evenodd;fill:#F58020;}
	.st1{fill-rule:evenodd;clip-rule:evenodd;fill:#2B2C2B;}
	.st2{fill-rule:evenodd;clip-rule:evenodd;fill:#FEBB12;}
	.st3{fill:#FEBB12;}
	.st4{fill:#010101;}
	.st5{fill:#838383;}
</style>
<g>
	<g>
		<polygon class="st0" points="145.2,32.9 132.4,3.7 71.4,3.7 84.2,32.9 		"/>
	</g>
	<g>
		<polygon class="st1" points="272.9,13.1 72.1,13.1 72.1,55.3 254.4,55.3 		"/>
	</g>
	<g>
		<polygon class="st2" points="105.6,64.7 4.7,64.7 31.4,3.7 132.4,3.7 		"/>
	</g>
	<g>
		<g>
			<polygon class="st3" points="143.9,41 138.8,38.4 133.7,41 134.6,35.3 130.6,31.2 136.2,30.3 138.9,25.2 141.5,30.3 147.1,31.3 
				143.1,35.4 			"/>
		</g>
		<g>
			<polygon class="st3" points="169.1,41 164,38.4 158.9,41 159.7,35.3 155.7,31.2 161.4,30.3 164.1,25.2 166.7,30.3 172.3,31.3 
				168.3,35.4 			"/>
		</g>
		<g>
			<polygon class="st3" points="194.3,41 189.2,38.4 184,41 184.9,35.3 180.9,31.2 186.6,30.3 189.2,25.2 191.8,30.3 197.5,31.3 
				193.5,35.4 			"/>
		</g>
		<g>
			<polygon class="st3" points="219.4,41 214.3,38.4 209.2,41 210.1,35.3 206.1,31.2 211.7,30.3 214.4,25.2 217,30.3 222.7,31.3 
				218.6,35.4 			"/>
		</g>
		<g>
			<polygon class="st3" points="244.6,41 239.5,38.4 234.4,41 235.2,35.3 231.3,31.2 236.9,30.3 239.6,25.2 242.2,30.3 247.8,31.3 
				243.8,35.4 			"/>
		</g>
		<g>
			<polyline class="st3" points="242.2,30.3 247.9,31.3 243.8,35.3 244.6,41 239.5,38.4 			"/>
		</g>
		<g>
			<polygon class="st5" points="244.6,41 239.5,38.4 234.4,41 235.2,35.3 231.3,31.2 236.9,30.3 239.6,25.2 242.2,30.3 247.8,31.3 
				243.8,35.4 			"/>
		</g>
		<g>
			<polyline class="st3" points="239.5,38.4 234.4,41 235.2,35.3 231.3,31.2 236.9,30.3 239.6,25.2 242.2,30.3 			"/>
		</g>
	</g>
</g>
<g>
	<path class="st4" d="M45.7,44.4v-3.3h-6.5v-2.6l7.4-9.5h2v9.5h1.9v2.7h-1.9v3.3H45.7z M42.3,38.4h3.8v-5L42.3,38.4z"/>
	<path class="st4" d="M52.8,41.6v-3.2h2.4v3.2H52.8z"/>
	<path class="st4" d="M63.3,44.4v-3.3h-6.5v-2.6l7.4-9.5h2v9.5h1.9v2.7h-1.9v3.3H63.3z M59.8,38.4h3.8v-5L59.8,38.4z"/>
	<path class="st4" d="M83.9,25.9l-11,15.7h-3.3l10.9-15.7H83.9z"/>
	<path class="st4" d="M90.1,34.5c0.7,0,1.4,0.1,2.1,0.4c0.6,0.2,1.2,0.6,1.6,1c0.5,0.4,0.8,1,1.1,1.6c0.3,0.6,0.4,1.3,0.4,2.1
		c0,0.8-0.1,1.5-0.4,2.2c-0.3,0.6-0.7,1.2-1.2,1.7c-0.5,0.5-1.1,0.8-1.8,1.1c-0.7,0.3-1.5,0.4-2.3,0.4c-1.1,0-2.2-0.2-3.1-0.7
		c-0.9-0.5-1.6-1.1-2.1-2l1.7-1.8c0.4,0.6,0.9,1,1.5,1.4c0.6,0.3,1.3,0.5,1.9,0.5c0.8,0,1.4-0.2,2-0.7c0.5-0.5,0.8-1.1,0.8-1.9
		c0-0.8-0.2-1.4-0.7-1.9c-0.5-0.5-1.1-0.7-1.8-0.7c-0.5,0-0.9,0.1-1.4,0.3c-0.4,0.2-0.8,0.5-1,0.9h-2.6c0,0,0-0.2,0.1-0.5
		c0.1-0.3,0.1-0.7,0.2-1.1c0.1-0.4,0.2-1,0.3-1.5c0.1-0.6,0.2-1.1,0.3-1.7c0.3-1.4,0.6-2.9,0.9-4.6h7.7v2.7h-5.6l-0.6,3.5
		c0.2-0.2,0.4-0.3,0.8-0.5C89.2,34.6,89.6,34.5,90.1,34.5z"/>
</g>
</svg>
