<?xml version="1.0" encoding="utf-8"?>
<!-- Generator: Adobe Illustrator 16.0.0, SVG Export Plug-In . SVG Version: 6.00 Build 0)  -->
<!DOCTYPE svg PUBLIC "-//W3C//DTD SVG 1.1//EN" "http://www.w3.org/Graphics/SVG/1.1/DTD/svg11.dtd">
<svg version="1.1" id="Layer_1" xmlns="http://www.w3.org/2000/svg" xmlns:xlink="http://www.w3.org/1999/xlink" x="0px" y="0px"
	 width="841.889px" height="595.281px" viewBox="0 0 841.889 595.281" enable-background="new 0 0 841.889 595.281"
	 xml:space="preserve">
<g id="Layer_1_1_">
	<g>
		<g>
			<polygon fill="#F58020" points="430.603,292.142 392.565,205.665 211.289,205.665 249.327,292.142 			"/>
		</g>
		<g>
			<polygon fill="#2B2C2B" points="810.092,233.302 213.369,233.302 213.369,359.007 755.115,359.007 			"/>
		</g>
		<g>
			<polygon fill="#FEBB12" points="312.923,386.643 12.779,386.643 92.42,205.665 392.565,205.665 			"/>
		</g>
		<g>
			<g>
				<polygon fill="#FEBB12" points="426.74,316.51 411.583,308.784 396.428,316.51 398.805,299.572 386.918,287.387 
					403.858,284.714 411.881,269.557 419.608,284.714 436.249,287.685 424.363,299.572 				"/>
			</g>
			<g>
				<polygon fill="#FEBB12" points="501.627,316.51 486.471,308.784 471.018,316.51 473.693,299.572 461.806,287.387 
					478.744,284.714 486.471,269.557 494.198,284.714 511.137,287.685 499.249,299.572 				"/>
			</g>
			<g>
				<polygon fill="#FEBB12" points="576.217,316.51 561.062,308.784 545.906,316.51 548.58,299.572 536.694,287.387 
					553.335,284.714 561.359,269.557 569.085,284.714 586.024,287.685 573.84,299.572 				"/>
			</g>
			<g>
				<polygon fill="#FEBB12" points="651.105,316.51 635.948,308.784 620.793,316.51 623.17,299.572 611.58,287.387 628.223,284.714 
					636.246,269.557 643.973,284.714 660.615,287.685 648.728,299.572 				"/>
			</g>
			<g>
				<polygon fill="#FCFCFC" points="725.992,316.51 710.836,308.784 695.383,316.51 698.058,299.572 686.171,287.387 
					703.11,284.714 710.836,269.557 718.86,284.714 735.502,287.685 723.615,299.572 				"/>
			</g>
			<g>
				<polyline fill="#FEBB12" points="698.058,299.572 686.171,287.387 703.11,284.714 				"/>
			</g>
		</g>
	</g>
	<g enable-background="new    ">
		<path d="M144.246,324.059v-8.855h-17.355v-7.072l19.911-25.557h5.409v25.498h5.23v7.132h-5.23v8.855H144.246z M134.855,308.072
			h10.282v-13.433L134.855,308.072z"/>
		<path d="M163.087,316.511v-8.559h6.538v8.559H163.087z"/>
		<path d="M200.946,309.32v7.191h-24.13v-7.191h8.44v-18.009c-0.357,0.476-0.921,0.961-1.694,1.456
			c-0.773,0.496-1.615,0.961-2.526,1.397c-0.912,0.436-1.853,0.793-2.823,1.07c-0.972,0.277-1.833,0.416-2.585,0.416v-7.43
			c0.713,0,1.584-0.228,2.615-0.683c1.03-0.455,2.04-1,3.031-1.635c0.99-0.633,1.852-1.257,2.585-1.872
			c0.733-0.614,1.198-1.1,1.397-1.456h8.143v26.746H200.946z"/>
		<path d="M242.252,274.313l-29.479,42.199h-8.796l29.42-42.199H242.252z"/>
		<path d="M259.072,297.552c1.981,0,3.823,0.327,5.527,0.981c1.704,0.653,3.17,1.574,4.398,2.764
			c1.228,1.188,2.189,2.615,2.882,4.279c0.693,1.664,1.041,3.506,1.041,5.527c0,2.14-0.387,4.081-1.159,5.824
			s-1.853,3.239-3.239,4.487c-1.387,1.248-3.031,2.219-4.933,2.912s-3.962,1.04-6.181,1.04c-3.09,0-5.854-0.653-8.291-1.961
			s-4.29-3.091-5.557-5.35l4.577-4.754c1.108,1.545,2.496,2.773,4.16,3.685s3.388,1.367,5.171,1.367c2.14,0,3.893-0.645,5.26-1.932
			c1.367-1.287,2.051-3.002,2.051-5.142c0-2.06-0.645-3.724-1.932-4.992c-1.288-1.268-2.923-1.902-4.903-1.902
			c-1.308,0-2.526,0.297-3.655,0.893c-1.129,0.594-2.031,1.406-2.705,2.437h-6.954c0-0.119,0.079-0.565,0.238-1.338
			c0.158-0.772,0.356-1.763,0.594-2.972c0.238-1.208,0.495-2.556,0.772-4.041c0.277-1.486,0.574-3.002,0.892-4.547
			c0.713-3.645,1.505-7.727,2.377-12.244h20.802v7.251h-15.037l-1.724,9.45c0.476-0.514,1.179-0.93,2.11-1.248
			C256.585,297.711,257.725,297.552,259.072,297.552z"/>
	</g>
</g>
<g id="Layer_2">
</g>
</svg>
