<?xml version="1.0" encoding="utf-8"?>
<!-- Generator: Adobe Illustrator 22.1.0, SVG Export Plug-In . SVG Version: 6.00 Build 0)  -->
<svg version="1.1" id="Layer_1" xmlns="http://www.w3.org/2000/svg" xmlns:xlink="http://www.w3.org/1999/xlink" x="0px" y="0px"
	 viewBox="0 0 283.3 69.3" style="enable-background:new 0 0 283.3 69.3;" xml:space="preserve">
<style type="text/css">
	.st0{fill-rule:evenodd;clip-rule:evenodd;fill:#F58020;}
	.st1{fill-rule:evenodd;clip-rule:evenodd;fill:#2B2C2B;}
	.st2{fill-rule:evenodd;clip-rule:evenodd;fill:#FEBB12;}
	.st3{fill:#FEBB12;}
	.st4{fill:#010101;}
	.st5{fill:#838383;}
</style>
<g>
	<g>
		<polygon class="st0" points="144.9,32.8 132.1,3.7 71.1,3.7 83.9,32.8 		"/>
	</g>
	<g>
		<polygon class="st1" points="272.6,13 71.8,13 71.8,55.3 254.1,55.3 		"/>
	</g>
	<g>
		<polygon class="st2" points="105.3,64.6 4.3,64.6 31.1,3.7 132.1,3.7 		"/>
	</g>
	<g>
		<g>
			<polygon class="st3" points="143.6,41 138.5,38.4 133.4,41 134.2,35.3 130.2,31.2 135.9,30.3 138.6,25.2 141.2,30.3 146.8,31.3 
				142.8,35.3 			"/>
		</g>
		<g>
			<polygon class="st3" points="168.8,41 163.7,38.4 158.5,41 159.4,35.3 155.4,31.2 161.1,30.3 163.7,25.2 166.3,30.3 172,31.3 
				168,35.3 			"/>
		</g>
		<g>
			<polygon class="st3" points="193.9,41 188.8,38.4 183.7,41 184.6,35.3 180.6,31.2 186.2,30.3 188.9,25.2 191.5,30.3 197.2,31.3 
				193.1,35.3 			"/>
		</g>
		<g>
			<polygon class="st3" points="219.1,41 214,38.4 208.9,41 209.7,35.3 205.8,31.2 211.4,30.3 214.1,25.2 216.7,30.3 222.3,31.3 
				218.3,35.3 			"/>
		</g>
		<g>
			<polygon class="st3" points="244.3,41 239.2,38.4 234,41 234.9,35.3 230.9,31.2 236.6,30.3 239.2,25.2 241.9,30.3 247.5,31.3 
				243.5,35.3 			"/>
		</g>
	</g>
</g>
<g>
	<path class="st4" d="M54.3,32.7c0.8,0,1.5,0.1,2.2,0.4s1.2,0.6,1.7,1.1c0.5,0.5,0.9,1,1.1,1.7c0.3,0.6,0.4,1.4,0.4,2.2
		c0,0.8-0.2,1.6-0.5,2.3C59,41,58.5,41.5,58,42s-1.2,0.9-1.9,1.1c-0.7,0.3-1.5,0.4-2.4,0.4c-1.2,0-2.3-0.3-3.2-0.8
		c-0.9-0.5-1.7-1.2-2.2-2.1l1.8-1.9c0.4,0.6,1,1.1,1.6,1.4c0.6,0.4,1.3,0.5,2,0.5c0.8,0,1.5-0.3,2-0.8s0.8-1.2,0.8-2
		c0-0.8-0.3-1.4-0.8-1.9s-1.1-0.7-1.9-0.7c-0.5,0-1,0.1-1.4,0.3c-0.4,0.2-0.8,0.5-1.1,0.9h-2.7c0,0,0-0.2,0.1-0.5s0.1-0.7,0.2-1.2
		s0.2-1,0.3-1.6c0.1-0.6,0.2-1.2,0.3-1.8c0.3-1.4,0.6-3,0.9-4.8h8.1v2.8h-5.9l-0.7,3.7c0.2-0.2,0.5-0.4,0.8-0.5
		C53.3,32.8,53.8,32.7,54.3,32.7z"/>
	<path class="st4" d="M75.9,23.7L64.5,40.1H61l11.5-16.4H75.9z"/>
	<path class="st4" d="M82.5,32.7c0.8,0,1.5,0.1,2.2,0.4s1.2,0.6,1.7,1.1c0.5,0.5,0.9,1,1.1,1.7c0.3,0.6,0.4,1.4,0.4,2.2
		c0,0.8-0.2,1.6-0.5,2.3c-0.3,0.7-0.7,1.3-1.3,1.7s-1.2,0.9-1.9,1.1c-0.7,0.3-1.5,0.4-2.4,0.4c-1.2,0-2.3-0.3-3.2-0.8
		c-0.9-0.5-1.7-1.2-2.2-2.1l1.8-1.9c0.4,0.6,1,1.1,1.6,1.4c0.6,0.4,1.3,0.5,2,0.5c0.8,0,1.5-0.3,2-0.8s0.8-1.2,0.8-2
		c0-0.8-0.3-1.4-0.8-1.9s-1.1-0.7-1.9-0.7c-0.5,0-1,0.1-1.4,0.3c-0.4,0.2-0.8,0.5-1.1,0.9h-2.7c0,0,0-0.2,0.1-0.5s0.1-0.7,0.2-1.2
		s0.2-1,0.3-1.6c0.1-0.6,0.2-1.2,0.3-1.8c0.3-1.4,0.6-3,0.9-4.8h8.1v2.8H81l-0.7,3.7c0.2-0.2,0.5-0.4,0.8-0.5
		C81.5,32.8,82,32.7,82.5,32.7z"/>
</g>
</svg>
