<?xml version="1.0" encoding="utf-8"?>
<!-- Generator: Adobe Illustrator 16.0.0, SVG Export Plug-In . SVG Version: 6.00 Build 0)  -->
<!DOCTYPE svg PUBLIC "-//W3C//DTD SVG 1.1//EN" "http://www.w3.org/Graphics/SVG/1.1/DTD/svg11.dtd">
<svg version="1.1" id="Layer_1" xmlns="http://www.w3.org/2000/svg" xmlns:xlink="http://www.w3.org/1999/xlink" x="0px" y="0px"
	 width="841.889px" height="595.281px" viewBox="0 0 841.889 595.281" enable-background="new 0 0 841.889 595.281"
	 xml:space="preserve">
<g id="Layer_1_1_">
	<g>
		<g>
			<polygon fill="#F58020" points="430.603,292.142 392.565,205.665 211.289,205.665 249.327,292.142 			"/>
		</g>
		<g>
			<polygon fill="#2B2C2B" points="810.092,233.302 213.369,233.302 213.369,359.007 755.115,359.007 			"/>
		</g>
		<g>
			<polygon fill="#FEBB12" points="312.923,386.643 12.779,386.643 92.42,205.665 392.565,205.665 			"/>
		</g>
		<g>
			<g>
				<polygon fill="#FEBB12" points="426.74,316.51 411.583,308.784 396.428,316.51 398.805,299.572 386.918,287.387 
					403.858,284.714 411.881,269.557 419.608,284.714 436.249,287.685 424.363,299.572 				"/>
			</g>
			<g>
				<polygon fill="#FEBB12" points="501.627,316.51 486.471,308.784 471.018,316.51 473.693,299.572 461.806,287.387 
					478.744,284.714 486.471,269.557 494.198,284.714 511.137,287.685 499.249,299.572 				"/>
			</g>
			<g>
				<polygon fill="#FEBB12" points="576.217,316.51 561.062,308.784 545.906,316.51 548.58,299.572 536.694,287.387 
					553.335,284.714 561.359,269.557 569.085,284.714 586.024,287.685 573.84,299.572 				"/>
			</g>
			<g>
				<polygon fill="#FEBB12" points="651.105,316.51 635.948,308.784 620.793,316.51 623.17,299.572 611.58,287.387 628.223,284.714 
					636.246,269.557 643.973,284.714 660.615,287.685 648.728,299.572 				"/>
			</g>
			<g>
				<polygon fill="#FEBB12" points="725.992,316.51 710.836,308.784 695.383,316.51 698.058,299.572 686.171,287.387 
					703.11,284.714 710.836,269.557 718.86,284.714 735.502,287.685 723.615,299.572 				"/>
			</g>
		</g>
	</g>
	<g enable-background="new    ">
		<path d="M132.359,324.059v-8.855h-17.355v-7.072l19.911-25.557h5.409v25.498h5.23v7.132h-5.23v8.855H132.359z M122.969,308.072
			h10.282v-13.433L122.969,308.072z"/>
		<path d="M151.2,316.511v-8.559h6.538v8.559H151.2z"/>
		<path d="M163.383,316.511c0-1.783,0.139-3.397,0.416-4.844c0.277-1.446,0.763-2.783,1.457-4.012
			c0.692-1.229,1.644-2.377,2.853-3.447c1.208-1.07,2.744-2.119,4.606-3.15c1.624-0.871,3.061-1.635,4.309-2.288
			c1.248-0.654,2.288-1.257,3.12-1.812c0.832-0.555,1.465-1.119,1.902-1.694c0.436-0.574,0.654-1.238,0.654-1.991
			c0-1.189-0.476-2.208-1.426-3.061c-0.951-0.852-2.318-1.278-4.101-1.278c-0.951,0-1.823,0.129-2.615,0.386
			c-0.793,0.258-1.536,0.604-2.229,1.04c-0.694,0.437-1.328,0.921-1.902,1.457c-0.575,0.535-1.099,1.099-1.575,1.694l-5.111-5.884
			c0.514-0.554,1.248-1.159,2.199-1.812c0.951-0.654,2.07-1.268,3.358-1.843c1.287-0.574,2.713-1.049,4.279-1.426
			c1.564-0.376,3.239-0.564,5.022-0.564c2.021,0,3.823,0.248,5.409,0.743c1.584,0.496,2.921,1.189,4.012,2.08
			c1.089,0.892,1.921,1.961,2.496,3.209c0.574,1.249,0.862,2.606,0.862,4.071c0,1.388-0.258,2.615-0.772,3.685
			c-0.516,1.07-1.169,2.021-1.961,2.853c-0.793,0.832-1.655,1.556-2.585,2.169c-0.931,0.615-1.833,1.159-2.704,1.635
			c-0.713,0.396-1.526,0.853-2.437,1.367c-0.912,0.516-1.812,1.08-2.704,1.693c-0.892,0.615-1.714,1.248-2.466,1.902
			c-0.753,0.653-1.328,1.298-1.724,1.932h18.008v7.191H163.383z"/>
		<path d="M234.526,274.313l-29.479,42.199h-8.796l29.42-42.199H234.526z"/>
		<path d="M251.346,297.552c1.981,0,3.823,0.327,5.527,0.981c1.704,0.653,3.17,1.574,4.398,2.764
			c1.228,1.188,2.189,2.615,2.882,4.279c0.693,1.664,1.041,3.506,1.041,5.527c0,2.14-0.387,4.081-1.159,5.824
			s-1.853,3.239-3.239,4.487c-1.387,1.248-3.031,2.219-4.933,2.912s-3.962,1.04-6.181,1.04c-3.09,0-5.854-0.653-8.291-1.961
			s-4.29-3.091-5.557-5.35l4.577-4.754c1.108,1.545,2.496,2.773,4.16,3.685s3.388,1.367,5.171,1.367c2.14,0,3.893-0.645,5.26-1.932
			c1.367-1.287,2.051-3.002,2.051-5.142c0-2.06-0.645-3.724-1.932-4.992c-1.288-1.268-2.923-1.902-4.903-1.902
			c-1.308,0-2.526,0.297-3.655,0.893c-1.129,0.594-2.031,1.406-2.705,2.437h-6.954c0-0.119,0.079-0.565,0.238-1.338
			c0.158-0.772,0.356-1.763,0.594-2.972c0.238-1.208,0.495-2.556,0.772-4.041c0.277-1.486,0.574-3.002,0.892-4.547
			c0.713-3.645,1.505-7.727,2.377-12.244h20.802v7.251h-15.037l-1.724,9.45c0.476-0.514,1.179-0.93,2.11-1.248
			C248.859,297.711,249.999,297.552,251.346,297.552z"/>
	</g>
	<g>
		<g>
			<polygon fill="#FEBB12" points="725.695,316.51 710.539,308.784 695.383,316.51 697.761,299.572 686.171,287.387 
				702.813,284.714 710.836,269.557 718.563,284.714 735.204,287.685 723.318,299.572 			"/>
		</g>
		<g>
			<polygon fill="#FEBB12" points="725.695,316.51 710.539,308.784 695.383,316.51 697.761,299.572 686.171,287.387 
				702.813,284.714 710.836,269.557 718.563,284.714 735.204,287.685 723.318,299.572 			"/>
		</g>
		<g>
			<polyline fill="#FFFFFF" points="710.836,285.902 710.836,269.557 718.563,284.714 735.204,287.685 723.318,299.572 
				725.695,316.51 710.539,308.784 695.383,316.51 697.761,299.572 			"/>
		</g>
	</g>
</g>
<g id="Layer_2">
</g>
</svg>
