<?xml version="1.0" encoding="utf-8"?>
<!-- Generator: Adobe Illustrator 16.0.0, SVG Export Plug-In . SVG Version: 6.00 Build 0)  -->
<!DOCTYPE svg PUBLIC "-//W3C//DTD SVG 1.1//EN" "http://www.w3.org/Graphics/SVG/1.1/DTD/svg11.dtd">
<svg version="1.1" id="Layer_1" xmlns="http://www.w3.org/2000/svg" xmlns:xlink="http://www.w3.org/1999/xlink" x="0px" y="0px"
	 width="841.889px" height="595.281px" viewBox="0 0 841.889 595.281" enable-background="new 0 0 841.889 595.281"
	 xml:space="preserve">
<g id="Layer_1_1_">
	<g>
		<g>
			<polygon fill="#F58020" points="430.603,292.142 392.565,205.665 211.289,205.665 249.327,292.142 			"/>
		</g>
		<g>
			<polygon fill="#2B2C2B" points="810.092,233.302 213.369,233.302 213.369,359.007 755.115,359.007 			"/>
		</g>
		<g>
			<polygon fill="#FEBB12" points="312.923,386.643 12.779,386.643 92.42,205.665 392.565,205.665 			"/>
		</g>
		<g>
			<g>
				<polygon fill="#FEBB12" points="426.74,316.51 411.583,308.784 396.428,316.51 398.805,299.572 386.918,287.387 
					403.858,284.714 411.881,269.557 419.608,284.714 436.249,287.685 424.363,299.572 				"/>
			</g>
			<g>
				<polygon fill="#FEBB12" points="501.627,316.51 486.471,308.784 471.018,316.51 473.693,299.572 461.806,287.387 
					478.744,284.714 486.471,269.557 494.198,284.714 511.137,287.685 499.249,299.572 				"/>
			</g>
			<g>
				<polygon fill="#FEBB12" points="576.217,316.51 561.062,308.784 545.906,316.51 548.58,299.572 536.694,287.387 
					553.335,284.714 561.359,269.557 569.085,284.714 586.024,287.685 573.84,299.572 				"/>
			</g>
			<g>
				<polygon fill="#FEBB12" points="651.105,316.51 635.948,308.784 620.793,316.51 623.17,299.572 611.58,287.387 628.223,284.714 
					636.246,269.557 643.973,284.714 660.615,287.685 648.728,299.572 				"/>
			</g>
			<g>
				<polygon fill="#FEBB12" points="725.992,316.51 710.836,308.784 695.383,316.51 698.058,299.572 686.171,287.387 
					703.11,284.714 710.836,269.557 718.86,284.714 735.502,287.685 723.615,299.572 				"/>
			</g>
		</g>
	</g>
	<g>
		<g>
			<polyline fill="#FFFFFF" points="648.728,299.572 651.105,316.51 635.948,308.784 620.793,316.51 623.17,299.572 			"/>
		</g>
		<g>
			<polygon fill="#FFFFFF" points="725.992,316.51 710.836,308.784 695.383,316.51 698.058,299.572 686.171,287.387 703.11,284.714 
				710.836,269.557 718.86,284.714 735.502,287.685 723.615,299.572 			"/>
		</g>
	</g>
	<g enable-background="new    ">
		<path d="M148.347,296.54c2.457,0.437,4.447,1.614,5.973,3.536c1.525,1.922,2.288,4.27,2.288,7.043
			c0,1.863-0.367,3.546-1.099,5.052c-0.734,1.506-1.764,2.783-3.091,3.834c-1.328,1.049-2.942,1.861-4.844,2.437
			c-1.902,0.574-4.042,0.862-6.419,0.862c-3.012,0-5.676-0.486-7.994-1.457s-4.25-2.387-5.795-4.249l4.517-5.646
			c1.03,1.308,2.259,2.318,3.685,3.031s3.209,1.07,5.349,1.07c2.417,0,4.259-0.476,5.527-1.427c1.268-0.951,1.902-2.417,1.902-4.398
			c0-2.06-0.733-3.646-2.199-4.755c-1.466-1.108-3.685-1.664-6.657-1.664h-1.664v-5.943h1.843c2.456,0,4.358-0.544,5.706-1.634
			c1.347-1.089,2.021-2.486,2.021-4.19c0-1.624-0.555-2.832-1.664-3.625c-1.11-0.792-2.556-1.188-4.338-1.188
			c-1.823,0-3.458,0.416-4.903,1.248c-1.447,0.832-2.625,2.001-3.537,3.507l-4.993-5.587c0.595-0.911,1.387-1.733,2.377-2.467
			c0.99-0.732,2.11-1.367,3.358-1.902c1.248-0.535,2.604-0.951,4.071-1.248c1.465-0.297,2.972-0.446,4.517-0.446
			c2.021,0,3.863,0.258,5.528,0.773c1.664,0.515,3.1,1.229,4.309,2.14c1.208,0.912,2.14,2.011,2.793,3.298
			c0.654,1.288,0.981,2.725,0.981,4.309c0,1.188-0.178,2.318-0.535,3.388c-0.356,1.07-0.872,2.042-1.545,2.912
			c-0.674,0.872-1.477,1.605-2.407,2.199C150.476,295.945,149.456,296.342,148.347,296.54z"/>
		<path d="M162.314,310.566v-8.559h6.538v8.559H162.314z"/>
		<path d="M189.475,291.607c1.981,0,3.823,0.327,5.527,0.98c1.704,0.654,3.17,1.575,4.398,2.764c1.228,1.189,2.189,2.615,2.882,4.28
			c0.693,1.664,1.041,3.506,1.041,5.527c0,2.139-0.387,4.081-1.159,5.824s-1.853,3.239-3.239,4.487
			c-1.387,1.248-3.031,2.219-4.933,2.912s-3.962,1.04-6.181,1.04c-3.09,0-5.854-0.653-8.291-1.961s-4.29-3.091-5.557-5.35
			l4.577-4.754c1.108,1.545,2.496,2.773,4.16,3.685s3.388,1.367,5.171,1.367c2.14,0,3.893-0.645,5.26-1.932
			c1.367-1.287,2.051-3.002,2.051-5.142c0-2.06-0.645-3.724-1.932-4.992c-1.288-1.268-2.923-1.902-4.903-1.902
			c-1.308,0-2.526,0.297-3.655,0.893c-1.129,0.594-2.031,1.406-2.705,2.436h-6.954c0-0.118,0.079-0.564,0.238-1.337
			c0.158-0.772,0.356-1.763,0.594-2.972c0.238-1.208,0.495-2.556,0.772-4.042c0.277-1.486,0.574-3.001,0.892-4.546
			c0.713-3.645,1.505-7.727,2.377-12.244h20.802v7.251h-15.037l-1.724,9.45c0.476-0.515,1.179-0.931,2.11-1.249
			C186.988,291.765,188.128,291.607,189.475,291.607z"/>
		<path d="M245.045,268.367l-29.479,42.199h-8.796l29.42-42.199H245.045z"/>
		<path d="M261.865,291.607c1.981,0,3.823,0.327,5.527,0.98c1.704,0.654,3.17,1.575,4.398,2.764c1.228,1.189,2.189,2.615,2.882,4.28
			c0.693,1.664,1.041,3.506,1.041,5.527c0,2.139-0.387,4.081-1.159,5.824s-1.853,3.239-3.239,4.487
			c-1.387,1.248-3.031,2.219-4.933,2.912s-3.962,1.04-6.181,1.04c-3.09,0-5.854-0.653-8.291-1.961s-4.29-3.091-5.557-5.35
			l4.577-4.754c1.108,1.545,2.496,2.773,4.16,3.685s3.388,1.367,5.171,1.367c2.14,0,3.893-0.645,5.26-1.932
			c1.367-1.287,2.051-3.002,2.051-5.142c0-2.06-0.645-3.724-1.932-4.992c-1.288-1.268-2.923-1.902-4.903-1.902
			c-1.308,0-2.526,0.297-3.655,0.893c-1.129,0.594-2.031,1.406-2.705,2.436h-6.954c0-0.118,0.079-0.564,0.238-1.337
			c0.158-0.772,0.356-1.763,0.594-2.972c0.238-1.208,0.495-2.556,0.772-4.042c0.277-1.486,0.574-3.001,0.892-4.546
			c0.713-3.645,1.505-7.727,2.377-12.244h20.802v7.251h-15.037l-1.724,9.45c0.476-0.515,1.179-0.931,2.11-1.249
			C259.379,291.765,260.518,291.607,261.865,291.607z"/>
	</g>
</g>
<g id="Layer_2">
</g>
</svg>
