<?xml version="1.0" encoding="utf-8"?>
<!-- Generator: Adobe Illustrator 22.1.0, SVG Export Plug-In . SVG Version: 6.00 Build 0)  -->
<svg version="1.1" id="Layer_1" xmlns="http://www.w3.org/2000/svg" xmlns:xlink="http://www.w3.org/1999/xlink" x="0px" y="0px"
	 viewBox="0 0 407.3 69.3" style="enable-background:new 0 0 407.3 69.3;" xml:space="preserve">
<style type="text/css">
	.st0{fill-rule:evenodd;clip-rule:evenodd;fill:#F58020;}
	.st1{fill-rule:evenodd;clip-rule:evenodd;fill:#2B2C2B;}
	.st2{fill-rule:evenodd;clip-rule:evenodd;fill:#FEBB12;}
	.st3{fill:#FEBB12;}
	.st4{fill:#010101;}
	.st5{fill:#838383;}
</style>
<g>
	<polygon class="st0" points="146,32.9 133.2,3.7 72.2,3.7 85,32.9 	"/>
</g>
<g>
	<polygon class="st1" points="401,13.1 72.9,13.1 72.9,55.3 382.4,55.3 	"/>
</g>
<g>
	<polygon class="st2" points="106.4,64.7 5.5,64.7 32.2,3.7 133.2,3.7 	"/>
</g>
<g>
	<polygon class="st3" points="144.7,41 139.6,38.4 134.5,41 135.4,35.3 131.4,31.2 137,30.3 139.7,25.2 142.3,30.3 147.9,31.3 
		143.9,35.4 	"/>
</g>
<g>
	<polygon class="st3" points="169.9,41 164.8,38.4 159.7,41 160.5,35.3 156.5,31.2 162.2,30.3 164.9,25.2 167.5,30.3 173.1,31.3 
		169.1,35.4 	"/>
</g>
<g>
	<polygon class="st3" points="195.1,41 190,38.4 184.8,41 185.7,35.3 181.7,31.2 187.4,30.3 190,25.2 192.6,30.3 198.3,31.3 
		194.3,35.4 	"/>
</g>
<g>
	<polygon class="st3" points="220.2,41 215.1,38.4 210,41 210.9,35.3 206.9,31.2 212.5,30.3 215.2,25.2 217.8,30.3 223.5,31.3 
		219.4,35.4 	"/>
</g>
<g>
	<polygon class="st3" points="245.4,41 240.3,38.4 235.2,41 236,35.3 232,31.2 237.7,30.3 240.4,25.2 243,30.3 248.6,31.3 
		244.6,35.4 	"/>
</g>
<g>
	<polygon class="st3" points="271.5,40.8 266.4,38.2 261.3,40.7 262.1,35.1 258.1,31 263.8,30 266.4,25 269.1,30.1 274.7,31 
		270.7,35.1 	"/>
</g>
<g>
	<polygon class="st3" points="296.7,40.8 291.6,38.2 286.4,40.7 287.3,35.1 283.3,31 288.9,30 291.6,25 294.2,30.1 299.9,31 
		295.8,35.1 	"/>
</g>
<g>
	<polygon class="st3" points="321.8,40.8 316.7,38.2 311.6,40.7 312.5,35.1 308.5,31 314.1,30 316.8,25 319.4,30.1 325,31 321,35.1 
			"/>
</g>
<g>
	<polygon class="st3" points="347,40.8 341.9,38.2 336.8,40.7 337.6,35.1 333.6,31 339.3,30 341.9,25 344.6,30.1 350.2,31 
		346.2,35.1 	"/>
</g>
<g>
	<polygon class="st3" points="372.2,40.7 367.1,38.2 361.9,40.7 362.8,35 358.8,30.9 364.4,30 367.1,25 369.7,30 375.4,31 
		371.3,35.1 	"/>
</g>
<g>
	<polyline class="st3" points="367.1,38.2 361.9,40.7 362.8,35.1 358.8,31 364.4,30 367.1,25 369.7,30.1 	"/>
</g>
<g>
	<polyline class="st5" points="369.7,30.1 375.4,31 371.3,35.1 372.2,40.8 367.1,38.2 361.9,40.7 362.8,35.1 	"/>
</g>
<g>
	<path class="st4" d="M35.5,34.4c0-0.8,0.1-1.5,0.4-2.1c0.3-0.7,0.7-1.2,1.2-1.7c0.5-0.5,1.1-0.9,1.8-1.2c0.7-0.3,1.5-0.4,2.3-0.4
		c0.9,0,1.7,0.2,2.4,0.5c0.7,0.3,1.3,0.8,1.8,1.4c0.5,0.6,0.9,1.4,1.2,2.3c0.3,0.9,0.4,1.9,0.4,3c0,1.4-0.1,2.7-0.4,3.8
		c-0.3,1.1-0.7,2-1.2,2.8c-0.5,0.7-1.2,1.3-1.9,1.7c-0.8,0.4-1.6,0.6-2.5,0.6c-1,0-1.9-0.2-2.7-0.6c-0.8-0.4-1.5-1-2.1-1.8l1.7-1.9
		c0.4,0.6,0.8,1,1.4,1.3s1.2,0.5,1.8,0.5c1,0,1.8-0.4,2.4-1.2c0.6-0.8,0.9-1.9,0.9-3.3c-0.3,0.5-0.7,0.9-1.3,1.3
		c-0.6,0.3-1.2,0.5-2,0.5c-0.8,0-1.5-0.1-2.2-0.4c-0.7-0.3-1.2-0.6-1.7-1.1c-0.5-0.5-0.9-1-1.1-1.7C35.6,35.8,35.5,35.1,35.5,34.4z
		 M41.2,31.4c-0.4,0-0.8,0.1-1.1,0.2c-0.3,0.2-0.7,0.4-0.9,0.6s-0.5,0.6-0.6,0.9c-0.2,0.4-0.2,0.7-0.2,1.1c0,0.4,0.1,0.8,0.2,1.1
		c0.2,0.3,0.4,0.7,0.6,0.9s0.6,0.5,0.9,0.6c0.4,0.1,0.7,0.2,1.1,0.2c0.4,0,0.8-0.1,1.1-0.2c0.4-0.1,0.7-0.4,0.9-0.6
		c0.3-0.3,0.5-0.6,0.6-0.9c0.2-0.3,0.2-0.7,0.2-1.1c0-0.4-0.1-0.8-0.2-1.1c-0.2-0.4-0.4-0.7-0.6-0.9c-0.3-0.3-0.6-0.5-0.9-0.6
		C42,31.5,41.6,31.4,41.2,31.4z"/>
	<path class="st4" d="M49.1,41.5v-3.2h2.4v3.2H49.1z"/>
	<path class="st4" d="M53.6,41.5c0-0.7,0.1-1.3,0.2-1.8c0.1-0.5,0.3-1,0.5-1.5c0.3-0.5,0.6-0.9,1.1-1.3c0.4-0.4,1-0.8,1.7-1.2
		c0.6-0.3,1.1-0.6,1.6-0.9c0.5-0.2,0.9-0.5,1.2-0.7c0.3-0.2,0.5-0.4,0.7-0.6c0.2-0.2,0.2-0.5,0.2-0.7c0-0.4-0.2-0.8-0.5-1.1
		c-0.4-0.3-0.9-0.5-1.5-0.5c-0.4,0-0.7,0-1,0.1c-0.3,0.1-0.6,0.2-0.8,0.4c-0.3,0.2-0.5,0.3-0.7,0.5c-0.2,0.2-0.4,0.4-0.6,0.6
		l-1.9-2.2c0.2-0.2,0.5-0.4,0.8-0.7c0.4-0.2,0.8-0.5,1.2-0.7c0.5-0.2,1-0.4,1.6-0.5c0.6-0.1,1.2-0.2,1.9-0.2c0.8,0,1.4,0.1,2,0.3
		c0.6,0.2,1.1,0.4,1.5,0.8c0.4,0.3,0.7,0.7,0.9,1.2c0.2,0.5,0.3,1,0.3,1.5c0,0.5-0.1,1-0.3,1.4c-0.2,0.4-0.4,0.8-0.7,1.1
		s-0.6,0.6-1,0.8c-0.3,0.2-0.7,0.4-1,0.6c-0.3,0.1-0.6,0.3-0.9,0.5c-0.3,0.2-0.7,0.4-1,0.6s-0.6,0.5-0.9,0.7
		c-0.3,0.2-0.5,0.5-0.6,0.7h6.7v2.7H53.6z"/>
	<path class="st4" d="M80,25.9l-11,15.7h-3.3l10.9-15.7H80z"/>
	<path class="st4" d="M90.6,38.9v2.7h-9v-2.7h3.1v-6.7c-0.1,0.2-0.3,0.4-0.6,0.5c-0.3,0.2-0.6,0.4-0.9,0.5c-0.3,0.2-0.7,0.3-1,0.4
		c-0.4,0.1-0.7,0.2-1,0.2V31c0.3,0,0.6-0.1,1-0.3c0.4-0.2,0.8-0.4,1.1-0.6c0.4-0.2,0.7-0.5,1-0.7s0.4-0.4,0.5-0.5h3v9.9H90.6z"/>
	<path class="st4" d="M103.7,35.1c0,1-0.1,1.9-0.4,2.7c-0.3,0.8-0.7,1.5-1.2,2.1s-1.1,1.1-1.8,1.4c-0.7,0.3-1.5,0.5-2.3,0.5
		c-0.8,0-1.6-0.2-2.3-0.5c-0.7-0.3-1.3-0.8-1.8-1.4c-0.5-0.6-0.9-1.3-1.2-2.1c-0.3-0.8-0.4-1.7-0.4-2.7c0-1,0.1-1.9,0.4-2.7
		c0.3-0.8,0.7-1.5,1.2-2.1c0.5-0.6,1.1-1.1,1.8-1.4c0.7-0.3,1.5-0.5,2.3-0.5c0.8,0,1.6,0.2,2.3,0.5c0.7,0.3,1.3,0.8,1.8,1.4
		s0.9,1.3,1.2,2.1C103.5,33.2,103.7,34.1,103.7,35.1z M100.7,35.1c0-0.6-0.1-1.1-0.2-1.6c-0.1-0.5-0.3-0.9-0.6-1.3
		c-0.2-0.4-0.5-0.6-0.9-0.8c-0.3-0.2-0.7-0.3-1.1-0.3c-0.4,0-0.8,0.1-1.1,0.3c-0.3,0.2-0.6,0.5-0.9,0.8c-0.2,0.4-0.4,0.8-0.6,1.3
		c-0.1,0.5-0.2,1-0.2,1.6c0,0.6,0.1,1.1,0.2,1.6c0.1,0.5,0.3,0.9,0.6,1.3c0.2,0.4,0.5,0.6,0.9,0.8C97.2,39,97.5,39,98,39
		c0.4,0,0.8-0.1,1.1-0.3c0.3-0.2,0.6-0.5,0.9-0.8c0.2-0.4,0.4-0.8,0.6-1.3C100.6,36.2,100.7,35.7,100.7,35.1z"/>
</g>
</svg>
