<?xml version="1.0" encoding="utf-8"?>
<!-- Generator: Adobe Illustrator 22.1.0, SVG Export Plug-In . SVG Version: 6.00 Build 0)  -->
<svg version="1.1" id="Layer_1" xmlns="http://www.w3.org/2000/svg" xmlns:xlink="http://www.w3.org/1999/xlink" x="0px" y="0px"
	 viewBox="0 0 283.3 69.3" style="enable-background:new 0 0 283.3 69.3;" xml:space="preserve">
<style type="text/css">
	.st0{fill:#F58020;}
	.st1{fill:#2B2C2B;}
	.st2{fill:#FEBB12;}
	.st3{enable-background:new    ;}
</style>
<g id="Layer_1_1_">
	<g>
		<g>
			<polygon class="st0" points="144.8,32.3 132,3.3 71.2,3.3 84,32.3 			"/>
		</g>
		<g>
			<polygon class="st1" points="271.4,13.3 72,13.3 72,55.3 253,55.3 			"/>
		</g>
		<g>
			<polygon class="st2" points="105.4,64.3 4.2,64.3 31,3.3 132.2,3.3 			"/>
		</g>
		<g>
			<g>
				<polygon class="st2" points="143.6,41 138.5,38.4 133.4,41 134.2,35.3 130.2,31.2 135.9,30.3 138.6,25.2 141.2,30.3 146.8,31.3 
					142.8,35.3 				"/>
			</g>
			<g>
				<polygon class="st2" points="168.8,41 163.7,38.4 158.5,41 159.4,35.3 155.4,31.2 161.1,30.3 163.7,25.2 166.3,30.3 172,31.3 
					168,35.3 				"/>
			</g>
			<g>
				<polygon class="st2" points="193.9,41 188.8,38.4 183.7,41 184.6,35.3 180.6,31.2 186.2,30.3 188.9,25.2 191.5,30.3 197.2,31.3 
					193.1,35.3 				"/>
			</g>
			<g>
				<polygon class="st2" points="219.1,41 214,38.4 208.9,41 209.7,35.3 205.8,31.2 211.4,30.3 214.1,25.2 216.7,30.3 222.3,31.3 
					218.3,35.3 				"/>
			</g>
			<g>
				<polygon class="st2" points="244.3,41 239.2,38.4 234,41 234.9,35.3 230.9,31.2 236.6,30.3 239.2,25.2 241.9,30.3 247.5,31.3 
					243.5,35.3 				"/>
			</g>
		</g>
	</g>
	<g class="st3">
		<path d="M56.1,32.6c0.7,0,1.3,0.1,1.9,0.3s1.1,0.5,1.5,0.9c0.4,0.4,0.7,0.9,1,1.4c0.2,0.6,0.3,1.2,0.3,1.9c0,0.7-0.1,1.4-0.4,2
			s-0.6,1.1-1.1,1.5s-1,0.7-1.7,1C57,41.9,56.3,42,55.5,42c-1,0-2-0.2-2.8-0.7s-1.4-1-1.9-1.8l1.5-1.6c0.4,0.5,0.8,0.9,1.4,1.2
			c0.6,0.3,1.1,0.5,1.7,0.5c0.7,0,1.3-0.2,1.8-0.7s0.7-1,0.7-1.7c0-0.7-0.2-1.3-0.7-1.7c-0.4-0.4-1-0.6-1.7-0.6
			c-0.4,0-0.8,0.1-1.2,0.3s-0.7,0.5-0.9,0.8h-2.3c0,0,0-0.2,0.1-0.5c0.1-0.3,0.1-0.6,0.2-1c0.1-0.4,0.2-0.9,0.3-1.4
			c0.1-0.5,0.2-1,0.3-1.5c0.2-1.2,0.5-2.6,0.8-4.1h7V30h-5.1l-0.6,3.2c0.2-0.2,0.4-0.3,0.7-0.4C55.3,32.7,55.6,32.6,56.1,32.6z"/>
		<path d="M74.8,24.8L64.9,39h-3l9.9-14.2H74.8z"/>
		<path d="M80.5,32.6c0.7,0,1.3,0.1,1.9,0.3c0.6,0.2,1.1,0.5,1.5,0.9c0.4,0.4,0.7,0.9,1,1.4c0.2,0.6,0.4,1.2,0.4,1.9
			c0,0.7-0.1,1.4-0.4,2c-0.3,0.6-0.6,1.1-1.1,1.5s-1,0.7-1.7,1c-0.6,0.2-1.3,0.3-2.1,0.3c-1,0-2-0.2-2.8-0.7c-0.8-0.4-1.4-1-1.9-1.8
			l1.5-1.6c0.4,0.5,0.8,0.9,1.4,1.2c0.6,0.3,1.1,0.5,1.7,0.5c0.7,0,1.3-0.2,1.8-0.7c0.5-0.4,0.7-1,0.7-1.7c0-0.7-0.2-1.3-0.7-1.7
			c-0.4-0.4-1-0.6-1.6-0.6c-0.4,0-0.9,0.1-1.2,0.3s-0.7,0.5-0.9,0.8h-2.3c0,0,0-0.2,0.1-0.5c0.1-0.3,0.1-0.6,0.2-1
			c0.1-0.4,0.2-0.9,0.3-1.4c0.1-0.5,0.2-1,0.3-1.5c0.2-1.2,0.5-2.6,0.8-4.1h7V30h-5.1l-0.6,3.2c0.2-0.2,0.4-0.3,0.7-0.4
			S80,32.6,80.5,32.6z"/>
	</g>
</g>
<g id="Layer_2_1_">
</g>
</svg>
