<?xml version="1.0" encoding="utf-8"?>
<!-- Generator: Adobe Illustrator 16.0.0, SVG Export Plug-In . SVG Version: 6.00 Build 0)  -->
<!DOCTYPE svg PUBLIC "-//W3C//DTD SVG 1.1//EN" "http://www.w3.org/Graphics/SVG/1.1/DTD/svg11.dtd">
<svg version="1.1" id="Layer_1" xmlns="http://www.w3.org/2000/svg" xmlns:xlink="http://www.w3.org/1999/xlink" x="0px" y="0px"
	 width="841.889px" height="595.281px" viewBox="0 0 841.889 595.281" enable-background="new 0 0 841.889 595.281"
	 xml:space="preserve">
<g id="Layer_1_1_">
	<g>
		<g>
			<polygon fill="#F58020" points="430.603,292.142 392.565,205.665 211.289,205.665 249.327,292.142 			"/>
		</g>
		<g>
			<polygon fill="#2B2C2B" points="810.092,233.302 213.369,233.302 213.369,359.007 755.115,359.007 			"/>
		</g>
		<g>
			<polygon fill="#FEBB12" points="312.923,386.643 12.779,386.643 92.42,205.665 392.565,205.665 			"/>
		</g>
		<g>
			<g>
				<polygon fill="#FEBB12" points="426.74,316.51 411.583,308.784 396.428,316.51 398.805,299.572 386.918,287.387 
					403.858,284.714 411.881,269.557 419.608,284.714 436.249,287.685 424.363,299.572 				"/>
			</g>
			<g>
				<polygon fill="#FEBB12" points="501.627,316.51 486.471,308.784 471.018,316.51 473.693,299.572 461.806,287.387 
					478.744,284.714 486.471,269.557 494.198,284.714 511.137,287.685 499.249,299.572 				"/>
			</g>
			<g>
				<polygon fill="#FEBB12" points="576.217,316.51 561.062,308.784 545.906,316.51 548.58,299.572 536.694,287.387 
					553.335,284.714 561.359,269.557 569.085,284.714 586.024,287.685 573.84,299.572 				"/>
			</g>
			<g>
				<polygon fill="#FEBB12" points="651.105,316.51 635.948,308.784 620.793,316.51 623.17,299.572 611.58,287.387 628.223,284.714 
					636.246,269.557 643.973,284.714 660.615,287.685 648.728,299.572 				"/>
			</g>
			<g>
				<polygon fill="#FEBB12" points="725.992,316.51 710.836,308.784 695.383,316.51 698.058,299.572 686.171,287.387 
					703.11,284.714 710.836,269.557 718.86,284.714 735.502,287.685 723.615,299.572 				"/>
			</g>
		</g>
	</g>
	<g>
		<g>
			<polyline fill="#FFFFFF" points="718.563,302.246 725.695,316.51 710.539,308.784 695.383,316.51 697.761,299.572 			"/>
		</g>
	</g>
	<g enable-background="new    ">
		<path d="M144.246,318.114v-8.855h-17.355v-7.073l19.911-25.556h5.409v25.498h5.23v7.132h-5.23v8.855H144.246z M134.855,302.127
			h10.282v-13.433L134.855,302.127z"/>
		<path d="M163.087,310.566v-8.559h6.538v8.559H163.087z"/>
		<path d="M206.711,296.48c0,2.061-0.396,3.982-1.188,5.766c-0.793,1.783-1.882,3.338-3.269,4.665
			c-1.387,1.328-3.022,2.368-4.903,3.12c-1.882,0.753-3.914,1.13-6.092,1.13c-2.377,0-4.527-0.437-6.449-1.308
			c-1.922-0.871-3.557-2.14-4.903-3.805c-1.348-1.664-2.377-3.693-3.091-6.092c-0.713-2.396-1.07-5.12-1.07-8.172
			c0-3.843,0.376-7.241,1.129-10.193c0.752-2.952,1.842-5.428,3.269-7.43c1.426-2,3.15-3.516,5.17-4.546
			c2.021-1.03,4.279-1.545,6.776-1.545c2.654,0,5.101,0.575,7.34,1.724c2.238,1.149,4.131,2.793,5.676,4.933l-4.577,4.992
			c-0.951-1.505-2.18-2.674-3.685-3.506c-1.506-0.832-3.13-1.248-4.874-1.248c-2.655,0-4.775,1.05-6.359,3.15
			c-1.585,2.101-2.417,5.072-2.496,8.915c0.832-1.426,2.01-2.556,3.536-3.388c1.525-0.832,3.299-1.248,5.319-1.248
			c2.06,0,3.992,0.356,5.795,1.07c1.803,0.713,3.367,1.704,4.695,2.972c1.327,1.269,2.367,2.764,3.121,4.487
			C206.334,292.647,206.711,294.499,206.711,296.48z M191.317,304.445c1.03,0,2.021-0.209,2.972-0.625
			c0.951-0.416,1.783-0.99,2.497-1.723c0.713-0.733,1.278-1.585,1.694-2.557c0.416-0.971,0.624-1.991,0.624-3.061
			s-0.208-2.07-0.624-3.001c-0.416-0.931-0.981-1.753-1.694-2.466c-0.713-0.713-1.536-1.268-2.467-1.665
			c-0.931-0.396-1.932-0.594-3.001-0.594s-2.08,0.199-3.031,0.594c-0.951,0.396-1.783,0.951-2.497,1.665
			c-0.713,0.713-1.269,1.536-1.664,2.466c-0.396,0.932-0.594,1.932-0.594,3.001s0.208,2.09,0.624,3.061
			c0.416,0.972,0.98,1.812,1.694,2.526c0.713,0.713,1.535,1.288,2.466,1.724C189.246,304.227,190.247,304.445,191.317,304.445z"/>
		<path d="M248.969,268.367l-29.479,42.199h-8.796l29.42-42.199H248.969z"/>
		<path d="M265.788,291.607c1.981,0,3.823,0.327,5.527,0.98c1.704,0.654,3.17,1.575,4.398,2.764c1.228,1.189,2.189,2.615,2.882,4.28
			c0.693,1.664,1.041,3.506,1.041,5.527c0,2.139-0.387,4.081-1.159,5.824s-1.853,3.239-3.239,4.487
			c-1.387,1.248-3.031,2.219-4.933,2.912s-3.962,1.04-6.181,1.04c-3.09,0-5.854-0.653-8.291-1.961s-4.29-3.091-5.557-5.35
			l4.577-4.754c1.108,1.545,2.496,2.773,4.16,3.685s3.388,1.367,5.171,1.367c2.14,0,3.893-0.645,5.26-1.932
			c1.367-1.287,2.051-3.002,2.051-5.142c0-2.06-0.645-3.724-1.932-4.992c-1.288-1.268-2.923-1.902-4.903-1.902
			c-1.308,0-2.526,0.297-3.655,0.893c-1.129,0.594-2.031,1.406-2.705,2.436h-6.954c0-0.118,0.079-0.564,0.238-1.337
			c0.158-0.772,0.356-1.763,0.594-2.972c0.238-1.208,0.495-2.556,0.772-4.042c0.277-1.486,0.574-3.001,0.892-4.546
			c0.713-3.645,1.505-7.727,2.377-12.244h20.802v7.251h-15.037l-1.724,9.45c0.476-0.515,1.179-0.931,2.11-1.249
			C263.302,291.765,264.441,291.607,265.788,291.607z"/>
	</g>
</g>
<g id="Layer_2">
</g>
</svg>
